<?xml version="1.0" encoding="UTF-8" standalone="no"?>
<!DOCTYPE svg PUBLIC "-//W3C//DTD SVG 1.1//EN"
 "http://www.w3.org/Graphics/SVG/1.1/DTD/svg11.dtd">
<!-- Generated by graphviz version 2.49.1 (20210923.0004)
 -->
<!-- Title: G Pages: 1 -->
<svg width="612pt" height="672pt"
 viewBox="0.00 0.00 612.03 672.46" xmlns="http://www.w3.org/2000/svg" xmlns:xlink="http://www.w3.org/1999/xlink">
<g id="graph0" class="graph" transform="scale(1 1) rotate(0) translate(4 668.46)">
<title>G</title>
<polygon fill="white" stroke="transparent" points="-4,4 -4,-668.46 608.03,-668.46 608.03,4 -4,4"/>
<!-- users -->
<g id="node1" class="node">
<title>users</title>
<ellipse fill="none" stroke="black" cx="75.37" cy="-631.31" rx="29.5" ry="29.5"/>
<text text-anchor="middle" x="75.37" y="-627.61" font-family="Times,serif" font-size="14.00">users</text>
</g>
<!-- user_orders -->
<g id="node7" class="node">
<title>user_orders</title>
<polygon fill="none" stroke="black" points="75.37,-514.52 0.13,-496.52 75.37,-478.52 150.61,-496.52 75.37,-514.52"/>
<text text-anchor="middle" x="75.37" y="-492.82" font-family="Times,serif" font-size="14.00">user_orders</text>
</g>
<!-- users&#45;&#45;user_orders -->
<g id="edge1" class="edge">
<title>users&#45;&#45;user_orders</title>
<path fill="none" stroke="black" d="M75.37,-601.83C75.37,-575.31 75.37,-536.65 75.37,-514.61"/>
</g>
<!-- orders -->
<g id="node2" class="node">
<title>orders</title>
<ellipse fill="none" stroke="black" cx="343.37" cy="-631.31" rx="33.29" ry="33.29"/>
<text text-anchor="middle" x="343.37" y="-627.61" font-family="Times,serif" font-size="14.00">orders</text>
</g>
<!-- delivery_status -->
<g id="node3" class="node">
<title>delivery_status</title>
<ellipse fill="none" stroke="black" cx="234.37" cy="-496.52" rx="65.79" ry="65.79"/>
<text text-anchor="middle" x="234.37" y="-492.82" font-family="Times,serif" font-size="14.00">delivery_status</text>
</g>
<!-- orders&#45;&#45;delivery_status -->
<g id="edge3" class="edge">
<title>orders&#45;&#45;delivery_status</title>
<path fill="none" stroke="black" d="M322.61,-605.02C309.33,-588.84 291.65,-567.3 275.59,-547.74"/>
</g>
<!-- ordered_to_contractors -->
<g id="node8" class="node">
<title>ordered_to_contractors</title>
<polygon fill="none" stroke="black" points="452.37,-514.52 317.98,-496.52 452.37,-478.52 586.77,-496.52 452.37,-514.52"/>
<text text-anchor="middle" x="452.37" y="-492.82" font-family="Times,serif" font-size="14.00">ordered_to_contractors</text>
</g>
<!-- orders&#45;&#45;ordered_to_contractors -->
<g id="edge4" class="edge">
<title>orders&#45;&#45;ordered_to_contractors</title>
<path fill="none" stroke="black" d="M364.13,-605.02C386.37,-577.93 420.96,-535.79 439.54,-513.16"/>
</g>
<!-- contractor -->
<g id="node4" class="node">
<title>contractor</title>
<ellipse fill="none" stroke="black" cx="452.37" cy="-347.43" rx="47.39" ry="47.39"/>
<text text-anchor="middle" x="452.37" y="-343.73" font-family="Times,serif" font-size="14.00">contractor</text>
</g>
<!-- contractor_sells_ressource -->
<g id="node9" class="node">
<title>contractor_sells_ressource</title>
<polygon fill="none" stroke="black" points="452.37,-263.99 300.55,-245.99 452.37,-227.99 604.19,-245.99 452.37,-263.99"/>
<text text-anchor="middle" x="452.37" y="-242.29" font-family="Times,serif" font-size="14.00">contractor_sells_ressource</text>
</g>
<!-- contractor&#45;&#45;contractor_sells_ressource -->
<g id="edge6" class="edge">
<title>contractor&#45;&#45;contractor_sells_ressource</title>
<path fill="none" stroke="black" d="M452.37,-299.91C452.37,-287.17 452.37,-274.15 452.37,-264.21"/>
</g>
<!-- ressource -->
<g id="node5" class="node">
<title>ressource</title>
<ellipse fill="none" stroke="black" cx="452.37" cy="-147.14" rx="44.69" ry="44.69"/>
<text text-anchor="middle" x="452.37" y="-143.44" font-family="Times,serif" font-size="14.00">ressource</text>
</g>
<!-- planet -->
<g id="node6" class="node">
<title>planet</title>
<ellipse fill="none" stroke="black" cx="452.37" cy="-33.15" rx="33.29" ry="33.29"/>
<text text-anchor="middle" x="452.37" y="-29.45" font-family="Times,serif" font-size="14.00">planet</text>
</g>
<!-- ressource&#45;&#45;planet -->
<g id="edge8" class="edge">
<title>ressource&#45;&#45;planet</title>
<path fill="none" stroke="black" d="M452.37,-102.2C452.37,-90.31 452.37,-77.66 452.37,-66.53"/>
</g>
<!-- order -->
<g id="node10" class="node">
<title>order</title>
<ellipse fill="none" stroke="black" cx="75.37" cy="-347.43" rx="29.8" ry="18"/>
<text text-anchor="middle" x="75.37" y="-343.73" font-family="Times,serif" font-size="14.00">order</text>
</g>
<!-- user_orders&#45;&#45;order -->
<g id="edge2" class="edge">
<title>user_orders&#45;&#45;order</title>
<path fill="none" stroke="black" d="M75.37,-478.36C75.37,-450.02 75.37,-393.75 75.37,-365.48"/>
</g>
<!-- ordered_to_contractors&#45;&#45;contractor -->
<g id="edge5" class="edge">
<title>ordered_to_contractors&#45;&#45;contractor</title>
<path fill="none" stroke="black" d="M452.37,-478.36C452.37,-458.05 452.37,-423.4 452.37,-394.99"/>
</g>
<!-- contractor_sells_ressource&#45;&#45;ressource -->
<g id="edge7" class="edge">
<title>contractor_sells_ressource&#45;&#45;ressource</title>
<path fill="none" stroke="black" d="M452.37,-227.67C452.37,-217.77 452.37,-204.86 452.37,-192.33"/>
</g>
</g>
</svg>
