<?xml version="1.0" encoding="UTF-8" standalone="no"?>
<!DOCTYPE svg PUBLIC "-//W3C//DTD SVG 1.1//EN"
 "http://www.w3.org/Graphics/SVG/1.1/DTD/svg11.dtd">
<!-- Generated by graphviz version 2.49.1 (20210923.0004)
 -->
<!-- Title: G Pages: 1 -->
<svg width="443pt" height="839pt"
 viewBox="0.00 0.00 443.31 838.96" xmlns="http://www.w3.org/2000/svg" xmlns:xlink="http://www.w3.org/1999/xlink">
<g id="graph0" class="graph" transform="scale(1 1) rotate(0) translate(4 834.96)">
<title>G</title>
<polygon fill="white" stroke="transparent" points="-4,4 -4,-834.96 439.31,-834.96 439.31,4 -4,4"/>
<!-- users -->
<g id="node1" class="node">
<title>users</title>
<ellipse fill="none" stroke="black" cx="174.64" cy="-801.71" rx="29.5" ry="29.5"/>
<text text-anchor="middle" x="174.64" y="-798.01" font-family="Times,serif" font-size="14.00">users</text>
</g>
<!-- user_orders -->
<g id="node7" class="node">
<title>user_orders</title>
<polygon fill="none" stroke="black" points="174.64,-736.46 99.4,-718.46 174.64,-700.46 249.89,-718.46 174.64,-736.46"/>
<text text-anchor="middle" x="174.64" y="-714.76" font-family="Times,serif" font-size="14.00">user_orders</text>
</g>
<!-- users&#45;&#45;user_orders -->
<g id="edge1" class="edge">
<title>users&#45;&#45;user_orders</title>
<path fill="none" stroke="black" d="M174.64,-772.29C174.64,-760.39 174.64,-746.96 174.64,-736.61"/>
</g>
<!-- orders -->
<g id="node2" class="node">
<title>orders</title>
<ellipse fill="none" stroke="black" cx="174.64" cy="-631.31" rx="33.29" ry="33.29"/>
<text text-anchor="middle" x="174.64" y="-627.61" font-family="Times,serif" font-size="14.00">orders</text>
</g>
<!-- delivery_status -->
<g id="node3" class="node">
<title>delivery_status</title>
<ellipse fill="none" stroke="black" cx="65.64" cy="-496.52" rx="65.79" ry="65.79"/>
<text text-anchor="middle" x="65.64" y="-492.82" font-family="Times,serif" font-size="14.00">delivery_status</text>
</g>
<!-- orders&#45;&#45;delivery_status -->
<g id="edge3" class="edge">
<title>orders&#45;&#45;delivery_status</title>
<path fill="none" stroke="black" d="M153.89,-605.02C140.61,-588.84 122.92,-567.3 106.87,-547.74"/>
</g>
<!-- ordered_to_contractors -->
<g id="node8" class="node">
<title>ordered_to_contractors</title>
<polygon fill="none" stroke="black" points="283.64,-514.52 149.25,-496.52 283.64,-478.52 418.04,-496.52 283.64,-514.52"/>
<text text-anchor="middle" x="283.64" y="-492.82" font-family="Times,serif" font-size="14.00">ordered_to_contractors</text>
</g>
<!-- orders&#45;&#45;ordered_to_contractors -->
<g id="edge4" class="edge">
<title>orders&#45;&#45;ordered_to_contractors</title>
<path fill="none" stroke="black" d="M195.4,-605.02C217.64,-577.93 252.23,-535.79 270.81,-513.16"/>
</g>
<!-- contractor -->
<g id="node4" class="node">
<title>contractor</title>
<ellipse fill="none" stroke="black" cx="283.64" cy="-347.43" rx="47.39" ry="47.39"/>
<text text-anchor="middle" x="283.64" y="-343.73" font-family="Times,serif" font-size="14.00">contractor</text>
</g>
<!-- contractor_sells_ressource -->
<g id="node9" class="node">
<title>contractor_sells_ressource</title>
<polygon fill="none" stroke="black" points="283.64,-263.99 131.82,-245.99 283.64,-227.99 435.47,-245.99 283.64,-263.99"/>
<text text-anchor="middle" x="283.64" y="-242.29" font-family="Times,serif" font-size="14.00">contractor_sells_ressource</text>
</g>
<!-- contractor&#45;&#45;contractor_sells_ressource -->
<g id="edge6" class="edge">
<title>contractor&#45;&#45;contractor_sells_ressource</title>
<path fill="none" stroke="black" d="M283.64,-299.91C283.64,-287.17 283.64,-274.15 283.64,-264.21"/>
</g>
<!-- ressource -->
<g id="node5" class="node">
<title>ressource</title>
<ellipse fill="none" stroke="black" cx="283.64" cy="-147.14" rx="44.69" ry="44.69"/>
<text text-anchor="middle" x="283.64" y="-143.44" font-family="Times,serif" font-size="14.00">ressource</text>
</g>
<!-- planet -->
<g id="node6" class="node">
<title>planet</title>
<ellipse fill="none" stroke="black" cx="283.64" cy="-33.15" rx="33.29" ry="33.29"/>
<text text-anchor="middle" x="283.64" y="-29.45" font-family="Times,serif" font-size="14.00">planet</text>
</g>
<!-- ressource&#45;&#45;planet -->
<g id="edge8" class="edge">
<title>ressource&#45;&#45;planet</title>
<path fill="none" stroke="black" d="M283.64,-102.2C283.64,-90.31 283.64,-77.66 283.64,-66.53"/>
</g>
<!-- user_orders&#45;&#45;orders -->
<g id="edge2" class="edge">
<title>user_orders&#45;&#45;orders</title>
<path fill="none" stroke="black" d="M174.64,-700.23C174.64,-690.02 174.64,-676.77 174.64,-664.67"/>
</g>
<!-- ordered_to_contractors&#45;&#45;contractor -->
<g id="edge5" class="edge">
<title>ordered_to_contractors&#45;&#45;contractor</title>
<path fill="none" stroke="black" d="M283.64,-478.36C283.64,-458.05 283.64,-423.4 283.64,-394.99"/>
</g>
<!-- contractor_sells_ressource&#45;&#45;ressource -->
<g id="edge7" class="edge">
<title>contractor_sells_ressource&#45;&#45;ressource</title>
<path fill="none" stroke="black" d="M283.64,-227.67C283.64,-217.77 283.64,-204.86 283.64,-192.33"/>
</g>
</g>
</svg>
